<svg width="23" height="22" viewBox="0 0 23 22" fill="none" xmlns="http://www.w3.org/2000/svg">
<path d="M13.8155 18.9536C14.1482 18.7615 14.3901 18.4435 14.4879 18.0696C14.5857 17.6956 14.5314 17.2963 14.337 16.9596L13.6039 15.6898C13.4095 15.3531 13.0908 15.1064 12.7181 15.0041C12.3453 14.9018 11.9489 14.9523 11.6162 15.1444C9.10699 16.5931 7.64082 14.0536 6.90773 12.7839C6.17464 11.5141 4.70847 8.97462 7.21767 7.52593C7.55041 7.33383 7.79229 7.01581 7.89009 6.64185C7.98789 6.26788 7.93361 5.8686 7.73918 5.53184L7.00609 4.2621C6.81167 3.92534 6.49302 3.67869 6.12026 3.57641C5.74749 3.47413 5.35115 3.52459 5.0184 3.7167C1.8819 5.52756 0.733088 7.88382 4.39853 14.2325C8.06397 20.5813 10.679 20.7645 13.8155 18.9536Z" stroke="#0E4E3F" stroke-width="1.5" stroke-linecap="round" stroke-linejoin="round"/>
<path d="M20.4925 13.7103C21.159 11.1566 20.7876 8.43059 19.4601 6.13129C18.1326 3.83198 15.9575 2.14742 13.4127 1.4477M16.6513 12.6563C16.8499 11.8978 16.8975 11.1059 16.7915 10.3258C16.6855 9.54565 16.428 8.79255 16.0337 8.10954C15.6394 7.42652 15.1159 6.82696 14.4933 6.34511C13.8706 5.86326 13.161 5.50856 12.4049 5.30128M12.8308 11.5946C12.964 11.0836 12.8896 10.5382 12.624 10.0781C12.3584 9.61804 11.9232 9.28094 11.4141 9.14082" stroke="#027C71" stroke-width="1.5" stroke-linecap="round" stroke-linejoin="round"/>
</svg>
